<svg height="512" viewBox="0 0 48 48" width="512" xmlns="http://www.w3.org/2000/svg"><g id="add-favorites"><path d="m41.41 17.46-5.41 5.26s-13.71 11-13.76 11l-11.7 6.15a1.12 1.12 0 0 1 -.47.11 1 1 0 0 1 -.59-.19 1 1 0 0 1 -.4-1l2.15-12.51-9.1-8.86a1 1 0 0 1 .56-1.71l12.57-1.82 5.62-11.34a1 1 0 0 1 1.8 0l5.61 11.38 12.56 1.82a1 1 0 0 1 .56 1.71z" fill="#ff6d00"/><path d="m33 20a13 13 0 1 0 13 13 13 13 0 0 0 -13-13z" fill="#008999"/><path d="m39 32h-5v-5a1 1 0 0 0 -2 0v5h-5a1 1 0 0 0 0 2h5v5a1 1 0 0 0 2 0v-5h5a1 1 0 0 0 0-2z" fill="#fff"/></g></svg>