<svg height="682.66669pt" viewBox="-21 -21 682.66669 682.66669" width="682.66669pt" xmlns="http://www.w3.org/2000/svg"><g fill="#ffd844"><path d="m320 0c-10.355469 0-18.75 8.394531-18.75 18.75v60.25c0 10.355469 8.394531 18.75 18.75 18.75s18.75-8.394531 18.75-18.75v-60.25c0-10.355469-8.394531-18.75-18.75-18.75zm0 0"/><path d="m120.242188 93.726562c-7.316407-7.320312-19.191407-7.320312-26.511719 0-7.324219 7.324219-7.324219 19.195313 0 26.515626l42.601562 42.605468c7.324219 7.324219 19.195313 7.324219 26.515625 0 7.324219-7.320312 7.324219-19.195312 0-26.515625zm0 0"/><path d="m136.324219 477.15625-42.605469 42.605469c-7.320312 7.324219-7.320312 19.191406 0 26.519531 7.328125 7.320312 19.195312 7.320312 26.519531 0l42.605469-42.605469c7.320312-7.324219 7.320312-19.191406 0-26.519531-7.328125-7.320312-19.195312-7.316406-26.519531 0zm0 0"/><path d="m320 542.25c-10.355469 0-18.75 8.394531-18.75 18.75v60.25c0 10.355469 8.394531 18.75 18.75 18.75s18.75-8.394531 18.75-18.75v-60.25c0-10.355469-8.394531-18.75-18.75-18.75zm0 0"/><path d="m97.75 320c0-10.355469-8.394531-18.75-18.75-18.75h-60.25c-10.355469 0-18.75 8.394531-18.75 18.75s8.394531 18.75 18.75 18.75h60.25c10.355469 0 18.75-8.394531 18.75-18.75zm0 0"/></g><path d="m320 479.335938c-87.855469 0-159.335938-71.480469-159.335938-159.335938s71.480469-159.335938 159.335938-159.335938 159.335938 71.480469 159.335938 159.335938-71.480469 159.335938-159.335938 159.335938zm0 0" fill="#fff16c"/><path d="m479.335938 320c0-87.855469-71.480469-159.335938-159.335938-159.335938v318.671876c87.855469 0 159.335938-71.480469 159.335938-159.335938zm0 0" fill="#ffd844"/><path d="m503.675781 162.84375 42.605469-42.609375c7.320312-7.320313 7.320312-19.1875 0-26.515625-7.328125-7.320312-19.195312-7.320312-26.515625 0l-42.609375 42.605469c-7.316406 7.324219-7.316406 19.191406 0 26.519531 7.328125 7.316406 19.195312 7.316406 26.519531 0zm0 0" fill="#ffa800"/><path d="m503.667969 477.152344c-7.320313-7.324219-19.195313-7.324219-26.515625 0-7.324219 7.320312-7.324219 19.195312 0 26.515625l42.605468 42.605469c7.320313 7.320312 19.191407 7.320312 26.515626 0 7.320312-7.324219 7.320312-19.195313 0-26.515626zm0 0" fill="#ffa800"/><path d="m621.25 301.25h-60.25c-10.355469 0-18.75 8.394531-18.75 18.75s8.394531 18.75 18.75 18.75h60.25c10.355469 0 18.75-8.394531 18.75-18.75s-8.394531-18.75-18.75-18.75zm0 0" fill="#ffa800"/><path d="m320 0v97.75c10.355469 0 18.75-8.394531 18.75-18.75v-60.25c0-10.355469-8.394531-18.75-18.75-18.75zm0 0" fill="#ffa800"/><path d="m320 542.25v97.75c10.355469 0 18.75-8.394531 18.75-18.75v-60.25c0-10.355469-8.394531-18.75-18.75-18.75zm0 0" fill="#ffa800"/></svg>